<?xml version="1.0" encoding="utf-8"?>
<!-- Generator: Adobe Illustrator 16.0.0, SVG Export Plug-In . SVG Version: 6.00 Build 0)  -->
<!DOCTYPE svg PUBLIC "-//W3C//DTD SVG 1.1//EN" "http://www.w3.org/Graphics/SVG/1.1/DTD/svg11.dtd">
<svg version="1.1"
	 id="svg4535" inkscape:output_extension="org.inkscape.output.svg.inkscape" sodipodi:docname="Nuovo documento 13" inkscape:version="0.47pre1" xmlns:dc="http://purl.org/dc/elements/1.1/" xmlns:sodipodi="http://sodipodi.sourceforge.net/DTD/sodipodi-0.dtd" xmlns:svg="http://www.w3.org/2000/svg" xmlns:cc="http://creativecommons.org/ns#" xmlns:rdf="http://www.w3.org/1999/02/22-rdf-syntax-ns#" xmlns:inkscape="http://www.inkscape.org/namespaces/inkscape"
	 xmlns="http://www.w3.org/2000/svg" xmlns:xlink="http://www.w3.org/1999/xlink" x="0px" y="0px" width="738.99px"
	 height="871.449px" viewBox="0 0 738.99 871.449" enable-background="new 0 0 738.99 871.449" xml:space="preserve">
<defs>
	
	
		<inkscape:perspective  inkscape:persp3d-origin="372.04724 : 350.78739 : 1" sodipodi:type="inkscape:persp3d" inkscape:vp_x="0 : 526.18109 : 1" inkscape:vp_y="0 : 1000 : 0" inkscape:vp_z="744.09448 : 526.18109 : 1" id="perspective4543">
		</inkscape:perspective>
	
		<inkscape:perspective  inkscape:persp3d-origin="0.5 : 0.33333333 : 1" sodipodi:type="inkscape:persp3d" inkscape:vp_x="0 : 0.5 : 1" inkscape:vp_y="0 : 1000 : 0" inkscape:vp_z="1 : 0.5 : 1" id="perspective4506">
		</inkscape:perspective>
</defs>
<sodipodi:namedview  inkscape:window-maximized="1" inkscape:window-y="-4" inkscape:window-x="-4" inkscape:window-height="744" inkscape:window-width="1280" inkscape:current-layer="layer1" inkscape:document-units="px" inkscape:pageshadow="2" inkscape:pageopacity="0.0" id="base" pagecolor="#ffffff" bordercolor="#666666" borderopacity="1.0" inkscape:zoom="1" inkscape:cy="475.72472" showgrid="false" inkscape:cx="369.49492">
	</sodipodi:namedview>
<g>
	<path fill="none" stroke="#000000" stroke-width="9" d="M350.969,48.725c-1.185,0.014-6.568,1.84-12.51,4.258
		c-11.671,4.749-13.801,5.321-14.309,3.888c-0.155-0.438-3.147-1.122-6.639-1.507c-5.469-0.604-7.604-0.403-15.446,1.481
		c-10.715,2.574-13.825,4.775-14.018,9.918c-0.181,4.783-2.536,7.367-7.009,7.644c-3.969,0.245-9.231-2.204-9.231-4.285
		c0-0.605-1.156-1.797-2.592-2.645c-2.292-1.354-3.073-1.393-6.348-0.476c-2.051,0.574-4.823,0.824-6.162,0.556
		c-2.367-0.474-2.461-0.36-3.201,3.914c-0.529,3.055-0.406,6.538,0.396,11.399c0.636,3.852,0.925,7.565,0.661,8.252
		c-1.104,2.878-11.744,0.25-11.029-2.724c1.269-5.272-6.375-3.4-10.288,2.513c-1.27,1.919-2.483,5.025-2.698,6.93
		c-0.367,3.257-0.193,3.613,2.989,5.818c3.057,2.118,3.443,2.813,3.967,7.009c0.645,5.164-0.247,7.088-3.28,7.088
		c-2.236,0-4.733-3.907-4.733-7.406c0-1.423-0.714-3.161-1.694-4.047c-1.629-1.475-1.934-1.481-6.215-0.132
		c-2.684,0.846-5.419,2.451-6.771,3.968c-5.296,5.943-14.93,0.726-14.944-8.094c-0.004-2.821-0.438-3.775-2.487-5.29
		c-2.252-1.666-2.799-1.742-5.66-0.793c-2.53,0.839-3.33,1.624-3.914,3.888c-0.583,2.265-0.437,3.046,0.715,3.888
		c3.282,2.401-0.879,15.542-5.979,18.858c-4.115,2.676-10.292,15.465-8.701,18.012c0.589,0.944,1.723,1.91,2.539,2.169
		c2.933,0.931,0.781,6.763-2.275,6.163c-1.764-0.347-2.422-1.406-3.888-6.375c-0.754-2.556-1.594-3.657-3.042-4.02
		c-2.112-0.53-2.677-2.85-1.084-4.443c0.504-0.505,0.791-1.811,0.634-2.91c-0.365-2.581-5.481-5.19-7.775-3.967
		c-2.54,1.353-6.116-0.753-10.791-6.348c-3.758-4.497-4.219-5.452-3.704-7.723c0.323-1.425,0.648-5.068,0.715-8.093
		c0.118-5.417,0.087-5.501-2.223-5.766c-2.437-0.28-8.252,2.7-8.252,4.232c0,0.472-1.799,4.147-3.994,8.173
		c-2.642,4.846-3.894,8.108-3.729,9.68c0.165,1.566-0.849,4.217-2.989,7.802c-3.087,5.174-5.011,6.714-9.178,7.353
		c-0.963,0.148-2.208,1.476-2.909,3.068c-1.052,2.391-1.544,2.722-3.385,2.274c-1.185-0.288-3.58-1.457-5.316-2.592
		c-4.333-2.834-8.035-2.667-12.483,0.555c-2.977,2.156-4.1,2.509-6.48,2.063c-2.171-0.407-3.483-0.115-5.315,1.19
		c-3.298,2.349-8.99,2.382-10.236,0.053c-1.22-2.281-3.07-2.153-3.676,0.265c-0.559,2.226-4.22,4.245-6.427,3.544
		c-0.811-0.257-2.484,0.343-3.729,1.323c-1.841,1.448-2.248,2.456-2.248,5.581c0,3.42,0.529,4.445,5.078,9.945
		c2.819,3.409,5.078,6.976,5.078,8.014c0,1.027,0.936,2.703,2.063,3.729c8.14,7.403,7.51,6.345,6.983,11.981
		c-0.264,2.828-0.72,5.801-1.032,6.613c-0.311,0.812-3.679,3.034-7.485,4.919c-5.911,2.929-7.251,3.308-9.204,2.565
		c-1.798-0.683-3.13-0.518-6.189,0.794c-2.14,0.917-4.419,1.667-5.078,1.667c-0.66,0-1.217,0.571-1.217,1.269
		c0,0.698,0.307,1.27,0.688,1.27s2.2,3.364,4.02,7.485c3.809,8.623,7.351,11.981,12.643,11.981c4.966,0,6.348,1.197,6.348,5.422
		c0,2.237-0.595,4.454-1.534,5.687c-0.846,1.11-3.091,4.747-4.999,8.094l-3.465,6.083l0.899,6.189
		c0.705,4.758,1.586,7.086,3.756,10.104c3.174,4.417,3.631,4.774,14.467,10.791c8.886,4.934,12.735,5.486,18.938,2.671
		c4.062-1.843,7.074-2.251,6.189-0.82c-0.31,0.5,0.261,1.782,1.269,2.856c1.708,1.817,1.758,2.178,0.635,4.867
		c-0.664,1.589-3.401,5.25-6.083,8.146l-4.893,5.264l1.058,3.782l1.084,3.808h6.56c4.636,0,6.831-0.366,7.537-1.216
		c0.55-0.662,2.598-1.447,4.55-1.772c6.743-1.125,17.509-7.704,17.509-10.686c0-1.965,5.502-13.046,6.903-13.912
		c0.554-0.341,2.168-0.845,3.597-1.137c2.655-0.543,4.269-2.721,5.105-6.876c0.646-3.208,5.485-7.759,11.69-10.977l5.448-2.83
		l12.193,3.2c14.841,3.877,16.503,4.477,19.784,7.3c8.433,7.258,18.417,13.384,26.66,16.346c4.75,1.706,9.323,3.094,10.184,3.094
		c1.958,0,8.903,7.761,10.976,12.272c1.099,2.393,1.735,6.54,2.169,14.177c0.336,5.942,0.939,11.014,1.348,11.267
		c0.41,0.253,0.741,1.346,0.741,2.407c0,1.093,1.488,3.453,3.412,5.475c6.259,6.58,9.665,16.271,8.701,24.703
		c-0.349,3.056,0.01,4.771,1.72,8.146c1.966,3.881,2.484,4.312,5.634,4.734c4.724,0.634,6.213,1.995,5.581,5.158
		c-0.417,2.08-0.034,3.043,2.194,5.343c1.494,1.541,3.105,2.803,3.571,2.803c3.964,0,16.583,14.656,16.583,19.254
		c0,2.046-0.386,2.699-1.799,2.91c-4.425,0.658-4.109,5.375,0.477,7.009c1.977,0.704,2.546,0.535,3.887-1.243
		c1.974-2.615,5.974-2.459,11.188,0.449c1.985,1.107,4.924,2.673,6.533,3.491c3.63,1.847,9.339,7.642,9.363,9.495
		c0.009,0.759,1.253,3.852,2.777,6.877c2.498,4.961,3.068,5.518,5.634,5.767c4.58,0.442,14.729,7.815,16.875,12.245
		c0.982,2.029,1.772,4.27,1.772,4.999c0,0.729,1.238,2.274,2.75,3.438c5.006,3.852,12.872,11.854,15.922,16.214
		c2.834,4.049,3.463,4.468,11.003,7.062c6.962,2.396,8.458,3.271,11.558,6.771c1.959,2.211,3.672,4.782,3.809,5.714
		c0.182,1.232,0.998,1.76,3.043,1.956c1.543,0.148,3.296-0.143,3.888-0.634s2.568-1.396,4.39-2.036
		c3.006-1.058,3.932-0.978,10.077,0.819c7.072,2.068,11.032,2.49,11.771,1.296c0.894-1.446,5.451,0.117,7.881,2.698
		c2.875,3.052,8.601,12.143,12.353,19.598c1.404,2.794,3.034,6.031,3.623,7.194c0.847,1.674,1.829,2.169,4.681,2.381
		c1.984,0.146,4.428-0.155,5.423-0.688c1.549-0.828,2.482-0.526,6.56,2.249c6.119,4.164,6.494,5.217,2.988,8.119
		c-5.323,4.408-5.766,4.872-5.766,6.137c0,1.735,2.389,1.581,6.03-0.371c2.143-1.148,4.024-1.479,6.374-1.163
		c2.435,0.327,3.646,0.066,4.47-0.926c0.619-0.747,1.846-1.35,2.75-1.35c0.905,0,2.438-0.418,3.387-0.925
		c2.577-1.38,6.19,2.479,10.129,10.791c3.655,7.711,3.762,8.326,2.063,11.796c-2.561,5.231-2.047,7.487,2.328,10.051
		c2.019,1.184,4.209,2.138,4.865,2.143c0.658,0.004,4.486,3.051,8.518,6.771s8.029,6.771,8.887,6.771
		c0.856,0,2.641-1.332,3.941-2.962c4.146-5.196,9.164-3.318,13.567,5.078c2.404,4.586,2.912,6.627,3.677,14.388
		c0.525,5.332,3.983,13.005,8.755,19.467c3.056,4.141,5.052,10.392,5.052,15.764c0,4.84,2.629,16.289,4.628,20.154
		c0.792,1.531,2.177,2.967,3.067,3.199c2.134,0.559,2.204,6.249,0.133,10.395c-1.446,2.895-1.569,2.956-5.924,2.672
		c-3.85-0.251-5.037,0.081-8.702,2.433c-3.625,2.327-5.897,4.689-5.897,6.163c0,0.209,0.729,0.563,1.613,0.793
		c0.883,0.231,2.192,1.33,2.909,2.434c1.133,1.745,1.161,2.631,0.185,6.798c-1.646,7.025-5.231,13.122-8.331,14.203
		c-3.32,1.157-3.994,1.115-3.994-0.212c0-0.603-1.467-1.474-3.279-1.958c-3.149-0.84-3.875-0.614-15.922,5.396l-12.59,6.294
		l-3.359-1.401c-1.842-0.773-5.35-1.397-7.803-1.401c-3.815-0.007-5.076,0.439-8.728,3.12c-7.56,5.55-21.954,8.186-34.517,6.348
		c-6.707-0.98-6.951-0.945-10.553,1.165c-5.874,3.442-9.354,2.985-19.704-2.566c-7.072-3.793-8.808-5.063-8.808-6.56
		c0-1.023-0.549-2.644-1.217-3.597c-1.143-1.632-1.566-1.676-7.591-0.819c-5.137,0.729-6.846,1.339-8.701,3.199
		c-1.811,1.816-2.102,2.554-1.297,3.359c0.566,0.565,1.032,1.33,1.032,1.692c0,0.875-6.338,4.074-8.067,4.074
		c-0.746,0-3.158-1.857-5.369-4.126l-4.02-4.126l-5.158,3.067c-2.846,1.688-5.927,4.02-6.822,5.185
		c-2.201,2.856-3.911,8.292-3.651,11.558c0.139,1.74-0.258,2.946-1.137,3.438c-1.182,0.661-1.22,1.324-0.317,5.236
		c0.885,3.838,1.75,5.129,6.136,9.099l5.104,4.629l7.432-0.582c7.072-0.553,7.593-0.491,10.607,1.587
		c1.74,1.2,4.861,2.558,6.955,3.015c2.965,0.649,4.654,1.773,7.618,5.053c3.543,3.919,14.152,10.288,17.139,10.288
		c0.604,0,2.694,1.673,4.629,3.729c1.985,2.11,5.881,4.875,8.966,6.348c5.049,2.41,5.958,2.583,11.717,2.116
		c5.635-0.458,6.579-0.311,10.023,1.64c5.239,2.965,9.919,7.719,13.04,13.25c2.451,4.345,3.184,4.919,10.976,8.809
		c7.626,3.806,8.615,4.115,11.452,3.358c3.695-0.986,11.039,0.548,12.353,2.592c1.067,1.663,4.555,1.72,5.184,0.079
		c0.262-0.684-0.156-2.904-0.925-4.919c-1.319-3.452-1.309-3.906,0.158-7.855c1.244-3.353,2.444-4.77,5.978-7.141
		c4.413-2.964,4.413-2.973,4.205-7.194c-0.171-3.455-0.501-4.287-1.878-4.55c-3.647-0.693-9.645-13.155-9.866-20.523
		c-0.137-4.591,0.08-5.324,2.037-6.956c2.366-1.974,4.84-9.071,4.84-13.887c0-3.04,3.273-8.449,11.506-19.043
		c2.849-3.665,5.126-7.757,6.348-11.425c1.047-3.145,2.059-5.143,2.248-4.444c0.189,0.699,0.746,2.099,1.243,3.121
		c0.519,1.068,0.705,4.24,0.449,7.432c-0.418,5.21-0.279,5.7,1.932,8.067c1.297,1.39,2.863,2.563,3.49,2.592
		c15.312,0.702,18.144,0.596,19.6-0.714c2.082-1.874,3.738-5.792,4.363-10.342c0.729-5.302,9.204-15.62,13.489-16.425
		c1.728-0.323,4.283-1.91,6.348-3.914c3.382-3.282,3.475-3.491,3.465-9.071c-0.006-3.144-0.545-7.708-1.19-10.131
		c-1.704-6.399,0.201-9.938,7.829-14.546c7.755-4.686,12.568-6.078,17.007-4.894c1.896,0.506,3.438,1.218,3.438,1.587
		s0.557,0.688,1.242,0.688c3.181,0,5.07-9.72,2.539-13.066c-1.537-2.033-1.701-14.817-0.264-20.524
		c0.919-3.652,0.859-3.975-1.059-5.448c-1.118-0.859-3.369-2.17-4.998-2.937c-1.63-0.766-5.874-3.638-9.443-6.374
		c-5.513-4.225-7.015-4.972-9.997-4.972c-1.931,0-4.259-0.393-5.157-0.874c-1.771-0.947-5.025-6.684-5.025-8.859
		c0-0.739,1.543-4.134,3.412-7.538c2.78-5.065,3.353-6.925,3.227-10.262c-0.136-3.593,0.168-4.351,2.434-6.269
		c2.629-2.228,5.315-6.66,5.315-8.755c0-0.645,1.523-3.346,3.385-6.004c1.863-2.658,3.387-5.106,3.387-5.448
		c0-1.069,6.207-7.072,8.014-7.75c0.945-0.354,4.246-0.288,7.326,0.159l5.607,0.82l-2.037,2.168
		c-1.113,1.202-1.896,2.565-1.745,3.016c0.149,0.45,3.307,2.562,7.009,4.708c5.967,3.458,7.247,3.908,11.373,3.782
		c6.428-0.196,16.869,1.317,19.096,2.776c2.895,1.896,7.436,12.522,6.957,16.267c-0.219,1.704,0.039,4.149,0.581,5.448
		c1.369,3.276,8.586,9.061,11.347,9.099c1.229,0.017,3.174,0.578,4.337,1.242c1.165,0.665,2.974,1.228,4.021,1.244
		c1.768,0.027,1.904-0.34,1.904-5.078c0-5.793,1.32-9.582,4.549-13.066c2.948-3.181,2.813-5.719-0.66-13.25
		c-3.013-6.533-6.491-10.401-17.43-19.335c-4.145-3.383-5.736-5.313-6.48-7.828c-1.179-3.982-2.476-5.043-9.124-7.485
		c-2.775-1.02-8.684-3.549-13.119-5.607c-6.751-3.133-9.231-4.894-15.262-10.765c-7.744-7.54-10.022-8.822-27.109-15.446
		c-15.644-6.063-19.231-7.694-31.738-14.361c-6.518-3.474-12.685-6.532-13.728-6.798c-1.042-0.265-3.069-1.813-4.496-3.438
		c-2.143-2.44-2.539-3.538-2.327-6.4c0.243-3.297,0.487-3.605,5.21-6.005c2.73-1.388,6.254-3.826,7.829-5.448
		c3.299-3.396,3.644-6.28,1.428-11.637c-1.881-4.551-5.042-5.593-13.807-4.576c-11.323,1.313-38.782,2.006-40.836,1.031
		c-1.037-0.491-3.097-1.35-4.576-1.904s-2.888-1.509-3.12-2.115c-0.233-0.607-2.443-1.774-4.92-2.593
		c-8.133-2.689-12.563-6.328-12.563-10.341c0-1.554-1.973-2.969-5.501-3.941c-0.938-0.259-7.464-6.091-14.494-12.96
		c-13.867-13.549-17.794-19.085-21.477-30.257c-1.074-3.258-2.662-7.711-3.518-9.892c-0.855-2.181-1.561-5.318-1.561-6.956
		c0-2.878-4.559-16.107-10.58-30.654c-1.604-3.875-2.73-7.561-2.485-8.199c0.517-1.347-4.398-6.468-6.348-6.612
		c-2.333-0.172-2.94-0.354-6.189-1.798c-3.606-1.604-9.213-6.021-18.17-14.362c-8.646-8.051-12.505-10.65-16.795-11.293
		c-3.328-0.499-4.539-1.403-11.082-8.279c-4.039-4.244-8.116-9.039-9.072-10.659c-4.307-7.298-8.859-33.793-7.168-41.683
		c0.963-4.491,1.492-4.904,3.068-2.381c0.581,0.931,1.824,1.693,2.75,1.693c1.314,0,1.709-0.607,1.799-2.75
		c0.087-2.073,0.194-2.265,0.476-0.793c0.561,2.935,2.106,1.858,4.734-3.28c2.79-5.455,2.812-9.554,0.079-9.945
		c-2.527-0.361-6.953-5.248-13.383-14.785l-5.581-8.278l3.385-6.718c3.026-6.019,3.983-7.14,8.993-10.5
		c4.861-3.261,5.879-3.648,7.618-2.857c1.504,0.686,1.787,1.195,1.11,2.01c-0.496,0.598-1.402,0.895-2.01,0.661
		c-2.036-0.781-11.479,10.032-11.479,13.146c0,1.878,1.43,0.842,2.803-2.037c0.777-1.629,2.044-2.962,2.804-2.962
		c0.76,0,5.418-2.163,10.368-4.814c18.362-9.835,23.194-12.113,25.708-12.113c2.559,0,2.573-0.034,2.063-3.756
		c-0.401-2.93-0.181-4.157,1.059-5.687l1.586-1.957l5.74,1.534c3.157,0.841,6.506,2.049,7.433,2.698
		c1.513,1.06,1.536,1.231,0.264,1.719c-1.811,0.695-1.852,2.909-0.052,2.909c0.75,0,2.846-0.834,4.654-1.851
		c2.557-1.438,3.279-2.371,3.279-4.153c0-1.261,0.551-2.495,1.217-2.75c1.853-0.711,7.725,3.997,10.156,8.146
		c2.681,4.575,2.681,4.84,0.054,4.84c-1.317,0-2.116,0.479-2.116,1.27c0,2.158,8.303,1.706,10.738-0.582
		c2-1.879,2.55-3.7,1.243-4.205c-0.401-0.155-1.898-2.167-3.307-4.443c-2.151-3.479-3.408-4.481-7.935-6.401
		c-4.069-1.725-5.6-2.863-6.215-4.602c-0.609-1.718-0.51-2.488,0.343-3.015c0.629-0.389,1.332-2.648,1.561-5.025
		c0.379-3.939,0.247-4.312-1.349-4.312c-0.963,0-1.987,0.381-2.274,0.847c-0.802,1.296-2.702,1.003-3.28-0.503
		c-0.698-1.821,1.629-5.588,4.709-7.591c3.854-2.506,5.701-8.821,2.592-8.86c-0.814-0.01-3.152-0.785-5.211-1.719
		c-2.563-1.163-4.032-1.416-4.628-0.82c-1.383,1.382-1.984,1.041-2.909-1.614c-0.807-2.313-0.592-2.743,3.094-6.189
		c2.176-2.034,5.945-4.819,8.385-6.188c4.118-2.313,6.136-5.063,6.136-8.358c0-1.531-10.258-3.878-19.255-4.391
		c-8.473-0.482-26.924-3.847-30.681-5.607c-1.163-0.545-3.067-1.115-4.231-1.243c-15.379-1.687-17.717-2.76-21.186-9.707
		c-2.628-5.263-6.332-9.998-7.802-9.998c-1.257,0-2.809-1.967-3.808-4.84c-1.001-2.877-0.925-3.039,2.75-4.919
		c2.02-1.034,2.778-5.291,1.058-5.951C351.114,48.709,351.049,48.724,350.969,48.725L350.969,48.725z"/>
	<g>
		<path stroke="#FFFFFF" d="M392.119,705.337c2.182-1.83,4.369-3.651,6.484-5.56c1.191,0.434,2.869-0.355,2.688-1.813
			c-1.609-13.124-3.195-26.253-4.85-39.373c-1.6-12.684-3.514-25.397-7.521-37.576c-0.387-1.176-2.09-1.89-3.104-0.972
			c-4.414,3.992-8.096,8.488-11.105,13.53c-6.354-14.213-13.958-27.871-22.727-40.736c-8.156-11.961-17.149-24.123-27.926-33.878
			c-8.956-8.102-18.597-15.533-28.261-22.767c-4.064-3.042-8.782-3.799-12.328,0.541c-3.789,4.633-6.917,10.001-10.368,14.896
			c-3.823,5.421-7.758,10.72-11.815,15.965c-5.378,6.951-11.689,13.749-14.436,22.174c-0.659,0.406-0.462,1.48,0.2,1.652
			c-0.714,3.679-1.315,7.848,0.133,11.248c1.52,3.564,4.695,4.166,8.159,4.763c10.704,1.852,21.22,4.694,31.403,8.48
			c13.527,5.03,26.361,11.802,38.258,19.962c4.108,2.817,8.137,5.742,11.985,8.906c1.99,1.635,3.989,3.291,5.842,5.083
			c3.115,3.01,4.549,6.104,6.602,9.963c-0.781,0.646-1.558,1.296-2.308,1.979c-4.671,4.245-8.608,9.189-11.901,14.562
			c-0.658,0.041-1.279,0.41-1.498,1.203c-0.927,3.349-4.966,11.344-0.911,14.063c1.507,1.012,3.584,0.856,5.292,0.919
			c3.547,0.131,7.085,0.329,10.619,0.638c7.962,0.696,15.901,1.843,23.724,3.498c2.125,0.45,4.365,0.884,6.553,1.472
			c0.066,0.077,0.16,0.134,0.25,0.149c0.111,0.019,0.207,0.007,0.309,0.004c4.156,1.177,8.064,2.984,10.559,6.663
			C390.588,705.671,391.455,705.893,392.119,705.337z"/>
		<path stroke="#FFFFFF" d="M378.726,695.102c0.959-1.871,1.648-3.963,2.252-5.987c0.754,0.361,1.502,0.739,2.248,1.119
			c-0.908,1.273-1.82,2.543-2.693,3.838c-0.299,0.443-0.605,0.866-0.871,1.299C379.351,695.279,379.039,695.188,378.726,695.102z"/>
		<path stroke="#FFFFFF" d="M373.578,693.921c1.039-1.389,1.646-3.546,2.191-4.951c0.24-0.618,0.502-1.252,0.693-1.893
			c0.871,0.365,1.732,0.758,2.592,1.15c-0.518,1.211-1.057,2.411-1.643,3.593c-0.43,0.868-0.902,1.735-1.303,2.629
			C375.265,694.258,374.418,694.083,373.578,693.921z"/>
		<path stroke="#FFFFFF" d="M365.636,692.537c-0.552-0.1-1.107-0.182-1.66-0.277c0.579-1.036,0.783-2.438,1.122-3.48
			c0.565-1.737,1.226-3.438,1.935-5.12c0.992,0.308,1.98,0.624,2.963,0.961c-1.005,2.695-2.279,5.382-3.097,8.139
			C366.47,692.687,366.049,692.612,365.636,692.537z"/>
		<path stroke="#FFFFFF" d="M358.719,691.436c1.469-2.816,2.313-6.152,3.3-9.19c1.218,0.308,2.432,0.634,3.637,0.988
			c-0.719,1.514-1.407,3.043-2.013,4.604c-0.514,1.328-1.134,2.729-1.245,4.157C361.175,691.796,359.947,691.611,358.719,691.436z"
			/>
		<path stroke="#FFFFFF" d="M353.666,690.783c1.74-2.846,2.635-6.381,3.462-9.665c1.187,0.239,2.368,0.506,3.546,0.788
			c-1.234,2.973-2.727,6.213-3.178,9.357C356.222,691.091,354.944,690.932,353.666,690.783z"/>
		<path stroke="#FFFFFF" d="M348.271,690.238c0.352-1.167,0.594-2.381,0.877-3.55c0.541-2.235,1.236-4.408,2.029-6.563
			c1.462,0.204,2.918,0.439,4.369,0.708c-1.367,3.234-3.209,6.357-4.144,9.692C350.36,690.418,349.315,690.328,348.271,690.238z"/>
		<path stroke="#FFFFFF" d="M345.874,690.028c-0.527-0.04-1.155-0.042-1.833-0.033c0.477-1.414,0.723-2.928,1.065-4.367
			c0.481-2.016,0.955-4.029,1.466-6.037c1.032,0.098,2.064,0.199,3.092,0.328c-1.498,3.151-3.242,6.675-3.706,10.117
			C345.931,690.033,345.902,690.03,345.874,690.028z"/>
		<path stroke="#FFFFFF" d="M340.333,690.063c0.461-0.973,0.702-2.104,0.992-3.099c0.737-2.524,1.184-4.92,1.332-7.549
			c0.002-0.043-0.011-0.071-0.012-0.109c0.819,0.044,1.641,0.081,2.459,0.146c-1.158,3.419-2.492,7.021-2.864,10.586
			C341.608,690.054,340.965,690.066,340.333,690.063z"/>
		<path stroke="#FFFFFF" d="M336.557,689.624c0.625-1.354,0.854-2.933,1.315-4.339c0.671-2.053,1.446-4.092,2.264-6.093
			c0.413,0.011,0.823,0.028,1.235,0.044c-0.031,0.047-0.064,0.094-0.084,0.147c-0.817,2.149-1.426,4.357-2.186,6.53
			c-0.456,1.301-1.206,2.614-1.393,3.977C337.29,689.826,336.903,689.739,336.557,689.624z"/>
		<path stroke="#FFFFFF" d="M368.52,693.032c1.337-2.401,2.002-5.34,2.765-7.955c1.258,0.45,2.504,0.923,3.74,1.423
			c-0.518,1.213-1.414,2.398-1.949,3.459c-0.614,1.218-1.283,2.302-1.501,3.593C370.537,693.368,369.513,693.198,368.52,693.032z"/>
		<path stroke="#FFFFFF" d="M381.894,696.108c0.037-0.065,0.078-0.137,0.115-0.196c0.98-1.592,1.889-3.226,2.844-4.833
			c0.768,0.409,1.527,0.827,2.285,1.256c-0.492,0.829-1.049,1.613-1.711,2.325c-0.641,0.686-1.584,1.235-2.117,2.006
			C382.845,696.469,382.373,696.285,381.894,696.108z"/>
		<path stroke="#FFFFFF" d="M389.834,693.93c-0.83,0.88-1.701,1.721-2.637,2.489c-0.25,0.207-0.516,0.394-0.773,0.579
			c0.244-0.28,0.473-0.569,0.691-0.844c0.695-0.868,1.266-1.816,1.748-2.813C389.189,693.535,389.511,693.731,389.834,693.93z"/>
		<path stroke="#FFFFFF" d="M388.736,698.113c1.012-0.98,1.932-2.039,2.795-3.15c0.342,0.219,0.678,0.451,1.02,0.674
			c-1.139,0.487-2.275,1.485-3.141,2.097c-0.475,0.335-1.197,0.868-1.48,1.472c-0.063-0.045-0.129-0.087-0.193-0.134
			C388.092,698.76,388.42,698.418,388.736,698.113z"/>
		<path stroke="#FFFFFF" d="M396.621,698.435c-0.166,0.127-0.334,0.252-0.498,0.378c0.143-0.145,0.287-0.288,0.426-0.429
			C396.572,698.401,396.597,698.418,396.621,698.435z"/>
		<path stroke="#FFFFFF" d="M313.733,608.96c-1.57,4.118-3.792,8.117-4.814,12.344c-0.174,0.718,0.661,1.185,1.15,0.599
			c2.616-3.141,3.881-7.95,4.979-12.122c1.138,0.729,2.258,1.479,3.373,2.24c-2.122,3.599-4.777,7.86-5.634,12.103
			c-1.41-0.8-2.827-1.588-4.256-2.348c-0.732-0.39-1.471-0.764-2.21-1.144c1.128-2.904,2.019-5.885,3.337-8.744
			c0.724-1.569,1.166-3.061,1.076-4.749C311.742,607.731,312.74,608.341,313.733,608.96z"/>
		<path stroke="#FFFFFF" d="M351.975,655.876c-0.406,0.064-0.806,0.113-1.194,0.18c-0.032-0.097-0.066-0.193-0.102-0.29
			c1.741-0.269,3.474-0.973,5.141-1.647c-0.148,0.496-0.431,0.926-0.832,1.34C353.981,655.588,352.976,655.715,351.975,655.876z"/>
		<path stroke="#FFFFFF" d="M353.044,652.809c0.889-0.517,1.729-1.096,2.445-1.601c0.169,0.452,0.282,0.853,0.356,1.222
			C354.934,652.543,353.983,652.651,353.044,652.809z"/>
		<path stroke="#FFFFFF" d="M354.758,649.797c-1.494,0.545-3.015,1.018-4.535,1.483c-0.649,0.199-1.255,0.332-1.755,0.599
			c-0.046-0.06-0.088-0.121-0.134-0.181c0.831-0.191,1.559-0.676,2.402-1.083c1.147-0.555,2.287-1.128,3.427-1.698
			C354.366,649.205,354.569,649.499,354.758,649.797z"/>
		<path stroke="#FFFFFF" d="M353.217,647.553c-0.91,0.355-1.819,0.711-2.726,1.073c-1.192,0.474-2.463,0.747-3.317,1.651
			c-0.104-0.121-0.206-0.24-0.308-0.356c0.922-0.537,1.75-1.298,2.605-1.916c0.906-0.658,1.835-1.285,2.772-1.896
			C352.565,646.592,352.902,647.064,353.217,647.553z"/>
		<path stroke="#FFFFFF" d="M351.389,644.841c-1.056,0.506-2.096,1.041-3.112,1.634c-0.954,0.557-2.032,1.131-2.805,1.945
			c-0.436-0.453-0.877-0.901-1.328-1.343c0.797-0.57,1.512-1.322,2.248-1.931c1.099-0.909,2.224-1.781,3.37-2.625
			C350.313,643.288,350.856,644.062,351.389,644.841z"/>
		<path stroke="#FFFFFF" d="M348.864,641.297c-1.288,0.729-2.562,1.48-3.788,2.315c-0.896,0.613-1.84,1.167-2.545,1.931
			c-0.343-0.314-0.685-0.628-1.033-0.937c0.877-0.667,1.677-1.52,2.416-2.182c1.174-1.048,2.249-2.179,3.287-3.347
			C347.765,639.809,348.315,640.554,348.864,641.297z"/>
		<path stroke="#FFFFFF" d="M346.344,638.002c-0.948,0.729-1.899,1.457-2.828,2.215c-1.167,0.949-2.653,1.786-3.773,2.866
			c-0.478-0.404-0.955-0.808-1.438-1.206c1.205-0.741,2.224-1.952,3.198-2.872c1.078-1.016,2.125-2.058,3.175-3.097
			C345.247,636.595,345.79,637.304,346.344,638.002z"/>
		<path stroke="#FFFFFF" d="M343.592,634.646c-1.222,0.964-2.437,1.937-3.64,2.926c-1.167,0.962-2.411,1.802-3.24,3.006
			c-0.53-0.428-1.062-0.853-1.592-1.275c1.036-0.793,1.941-1.808,2.771-2.739c1.261-1.414,2.413-2.911,3.507-4.453
			C342.145,632.942,342.867,633.794,343.592,634.646z"/>
		<path stroke="#FFFFFF" d="M340.402,631.039c-1.38,1.552-2.854,3.01-4.374,4.433c-0.872,0.815-1.812,1.588-2.618,2.473
			c-0.369-0.293-0.747-0.577-1.119-0.867c1.209-0.989,2.262-2.438,3.112-3.497c1.175-1.467,2.152-3.034,3.01-4.684
			C339.089,629.599,339.744,630.321,340.402,631.039z"/>
		<path stroke="#FFFFFF" d="M337.687,628.164c-0.958,1.474-2.021,2.881-3.153,4.227c-1.089,1.294-2.491,2.364-3.611,3.631
			c-0.313-0.239-0.632-0.477-0.947-0.714c0.618-0.619,0.93-1.357,1.385-2.15c0.602-1.046,1.352-1.998,2.045-2.982
			c0.926-1.311,1.708-2.625,2.222-4.064C336.322,626.787,337.009,627.471,337.687,628.164z"/>
		<path stroke="#FFFFFF" d="M334.44,624.957c-1.587,3.247-5.633,5.699-5.875,9.314c-0.355-0.259-0.704-0.524-1.063-0.779
			c0.075-0.074,0.138-0.16,0.161-0.266c0.426-1.865,0.667-3.761,1.258-5.588c0.619-1.915,1.515-3.724,2.494-5.479
			C332.439,623.075,333.444,624.011,334.44,624.957z"/>
		<path stroke="#FFFFFF" d="M330.686,621.532c-2.421,3.105-4.216,7.354-4.129,11.3c-1.266-0.892-2.545-1.764-3.836-2.619
			c2.22-3.384,4.002-7.48,4.85-11.344c0.032,0.025,0.064,0.052,0.096,0.076C328.69,619.788,329.691,620.657,330.686,621.532z"/>
		<path stroke="#FFFFFF" d="M326.559,618.067c-1.155,1.88-2.004,3.989-2.917,5.982c-0.799,1.744-1.602,3.47-2.325,5.234
			c-0.895-0.581-1.8-1.148-2.708-1.712c0.924-1.236,1.558-2.765,2.176-4.133c1.131-2.51,1.968-5.156,2.646-7.827
			C324.489,616.411,325.528,617.235,326.559,618.067z"/>
		<path stroke="#FFFFFF" d="M322.147,614.67c-0.67,2.196-1.469,4.327-2.509,6.388c-0.908,1.797-2.121,3.495-3.003,5.315
			c-0.741-0.446-1.483-0.89-2.229-1.323c0.639-1.401,1.002-2.961,1.543-4.384c1.038-2.718,2.159-5.376,3.474-7.965
			C320.342,613.341,321.246,614.005,322.147,614.67z"/>
		<path stroke="#FFFFFF" d="M309.587,606.481c-0.135,0.133-0.231,0.305-0.232,0.504c-0.012,2.972-2.332,5.568-3.429,8.265
			c-0.598,1.467-1.051,2.964-1.3,4.507c-0.823-0.414-1.655-0.811-2.484-1.21c2.545-3.967,2.822-9.23,4.734-13.592
			C307.788,605.449,308.687,605.966,309.587,606.481z"/>
		<path stroke="#FFFFFF" d="M305.629,604.299c-2.25,4.22-3.37,9.011-4.987,13.519c-1.521-0.718-3.054-1.407-4.595-2.081
			c2.906-3.812,2.651-9.499,4.9-13.795C302.522,602.696,304.083,603.481,305.629,604.299z"/>
		<path stroke="#FFFFFF" d="M299.811,601.396c-2.596,4.104-3.327,9.237-5.113,13.765c-1.394-0.597-2.797-1.176-4.208-1.735
			c1.735-4.524,2.857-9.329,4.163-13.973c0.044-0.154,0.015-0.274-0.051-0.365C296.353,599.816,298.09,600.593,299.811,601.396z"/>
		<path stroke="#FFFFFF" d="M293.601,599.261c-1.608,4.479-3.359,8.969-4.577,13.582c-1.54-0.596-3.083-1.173-4.639-1.723
			c0.123-0.057,0.232-0.147,0.296-0.27c2.289-4.342,3.585-9.144,4.691-13.901c1.646,0.659,3.257,1.319,4.815,1.96
			C293.946,598.906,293.69,599.016,293.601,599.261z"/>
		<path stroke="#FFFFFF" d="M288.397,596.562c-0.059,0.069-0.107,0.146-0.131,0.239c-1.233,4.722-3.028,9.23-4.549,13.858
			c-0.026,0.085-0.035,0.159-0.03,0.224c-0.744-0.259-1.489-0.511-2.237-0.761c1.83-4.715,3.42-9.547,4.623-14.467
			C286.856,595.954,287.63,596.258,288.397,596.562z"/>
		<path stroke="#FFFFFF" d="M284.976,595.239c-1.851,4.729-3.29,9.629-4.485,14.557c-1.315-0.431-2.636-0.841-3.962-1.238
			c1.968-4.692,3.206-9.801,4.808-14.633C282.562,594.349,283.777,594.789,284.976,595.239z"/>
		<path stroke="#FFFFFF" d="M279.865,593.425c-2.053,4.688-4.048,9.609-4.995,14.652c-1.003-0.289-2.006-0.574-3.012-0.846
			c1.211-5.054,2.286-10.088,3.868-15.069c0.004-0.01,0-0.017,0.003-0.025C277.119,592.534,278.498,592.969,279.865,593.425z"/>
		<path stroke="#FFFFFF" d="M274.457,591.781c-2.177,4.731-3.792,9.804-4.334,15.001c-1.695-0.438-3.394-0.854-5.101-1.241
			c1.067-1.961,1.829-4.071,2.38-6.264c0.727-2.889,0.599-5.969,1.421-8.809C270.708,590.83,272.589,591.271,274.457,591.781z"/>
		<path stroke="#FFFFFF" d="M267.555,590.241c-0.977,2.258-1.067,4.768-1.646,7.185c-0.639,2.67-1.665,5.202-2.771,7.702
			c-0.924-0.199-1.847-0.396-2.773-0.582c0.57-2.489,2.069-4.646,2.946-7.079c0.893-2.476,1.278-5.047,1.311-7.647
			C265.599,589.935,266.576,590.075,267.555,590.241z"/>
		<path stroke="#FFFFFF" d="M255.517,589.653c0.936-0.087,1.879-0.14,2.826-0.157c-0.932,1.716-1.53,3.62-2.193,5.452
			c-0.955,2.642-2.131,5.267-2.437,8.077c-0.01,0.083-0.009,0.161-0.003,0.237c-0.24-0.092-0.472-0.195-0.696-0.308
			C253.75,598.494,253.596,593.598,255.517,589.653z"/>
		<path stroke="#FFFFFF" d="M255.699,603.813c0.083-0.138,0.141-0.304,0.161-0.51c0.469-4.771,3.229-9.083,4.114-13.808
			c1.03,0.021,2.067,0.076,3.106,0.166c-0.738,2.952-1.705,5.864-3.001,8.612c-0.959,2.034-2.041,3.755-2.362,5.864
			C257.045,604.046,256.365,603.945,255.699,603.813z"/>
		<path stroke="#FFFFFF" d="M251.288,590.317c0.896-0.2,1.8-0.362,2.71-0.487c-1.188,2.227-1.542,4.608-1.941,7.18
			c-0.243,1.558-0.487,3.128-0.667,4.703c-0.368-0.43-0.673-0.932-0.882-1.547C249.554,597.349,250.621,593.288,251.288,590.317z"/>
		<path stroke="#FFFFFF" d="M351.181,658.196c0.174-0.049,0.35-0.101,0.522-0.158c-0.173,0.132-0.348,0.263-0.52,0.396
			C351.183,658.355,351.182,658.276,351.181,658.196z"/>
		<path stroke="#FFFFFF" d="M354.866,659.784c1.757-1.271,4.429-2.378,5.188-4.592c0.872-2.537-0.971-4.872-2.237-6.934
			c-7.228-11.766-16.432-22.349-27.044-31.182c-11.553-9.617-24.592-16.727-38.715-21.802c-12.379-4.446-27.526-10.594-40.841-7.075
			c-0.012-0.018-0.025-0.036-0.037-0.053c3.938-3.771,6.851-8.558,10.168-12.936c3.506-4.625,7.142-9.146,10.546-13.847
			c3.461-4.781,6.841-9.624,10.209-14.473c1.461-2.104,2.804-4.389,4.415-6.381c2.682-3.316,5.041-1.672,7.845,0.458
			c9.113,6.923,18.249,13.925,26.741,21.607c10.116,9.151,18.53,20.555,26.248,31.742c9.826,14.24,18.131,29.384,25.11,45.209
			c0.84,1.903,3.27,1.553,4.08-0.13c2.494-5.182,5.588-9.641,9.479-13.762c3.422,11.019,5.17,22.364,6.635,33.814
			c1.477,11.548,2.914,23.102,4.367,34.653c-16.947-11.533-36.895-17.837-57.413-18.257
			C343.72,669.647,348.812,664.165,354.866,659.784z"/>
		<path stroke="#FFFFFF" d="M336.97,679.151c0.492-0.003,0.981,0.015,1.47,0.02c-1.441,2.623-2.969,5.771-3.436,8.798
			C334.381,685.552,336.209,681.284,336.97,679.151z"/>
		<path stroke="#FFFFFF" d="M389.695,700.676c0.555-0.262,1.078-0.749,1.439-1.074c1.027-0.923,2.068-1.879,2.758-3.079
			c0.504,0.342,1.008,0.684,1.51,1.034c-0.846,0.473-1.688,0.964-2.49,1.49c-0.975,0.64-2.008,1.203-2.814,2.023
			C389.967,700.938,389.83,700.807,389.695,700.676z"/>
	</g>
	<circle fill="#9E0000" cx="405.324" cy="723.377" r="15"/>
</g>
</svg>
