<?xml version="1.0" encoding="utf-8"?>
<!-- Generator: Adobe Illustrator 16.0.0, SVG Export Plug-In . SVG Version: 6.00 Build 0)  -->
<!DOCTYPE svg PUBLIC "-//W3C//DTD SVG 1.1//EN" "http://www.w3.org/Graphics/SVG/1.1/DTD/svg11.dtd">
<svg version="1.1"
	 id="svg4535" xmlns:dc="http://purl.org/dc/elements/1.1/" xmlns:sodipodi="http://sodipodi.sourceforge.net/DTD/sodipodi-0.dtd" xmlns:svg="http://www.w3.org/2000/svg" xmlns:cc="http://creativecommons.org/ns#" xmlns:rdf="http://www.w3.org/1999/02/22-rdf-syntax-ns#" xmlns:inkscape="http://www.inkscape.org/namespaces/inkscape" inkscape:version="0.47pre1" sodipodi:docname="Nuovo documento 13" inkscape:output_extension="org.inkscape.output.svg.inkscape"
	 xmlns="http://www.w3.org/2000/svg" xmlns:xlink="http://www.w3.org/1999/xlink" x="0px" y="0px" width="738.99px"
	 height="871.449px" viewBox="0 0 738.99 871.449" enable-background="new 0 0 738.99 871.449" xml:space="preserve">
<defs>
	
	
		<inkscape:perspective  id="perspective4543" inkscape:vp_z="744.09448 : 526.18109 : 1" inkscape:vp_y="0 : 1000 : 0" inkscape:vp_x="0 : 526.18109 : 1" sodipodi:type="inkscape:persp3d" inkscape:persp3d-origin="372.04724 : 350.78739 : 1">
		</inkscape:perspective>
	
		<inkscape:perspective  id="perspective4506" inkscape:vp_z="1 : 0.5 : 1" inkscape:vp_y="0 : 1000 : 0" inkscape:vp_x="0 : 0.5 : 1" sodipodi:type="inkscape:persp3d" inkscape:persp3d-origin="0.5 : 0.33333333 : 1">
		</inkscape:perspective>
</defs>
<sodipodi:namedview  inkscape:cx="369.49492" showgrid="false" inkscape:cy="475.72472" inkscape:zoom="1" borderopacity="1.0" bordercolor="#666666" pagecolor="#ffffff" id="base" inkscape:pageopacity="0.0" inkscape:pageshadow="2" inkscape:document-units="px" inkscape:current-layer="layer1" inkscape:window-width="1280" inkscape:window-height="744" inkscape:window-x="-4" inkscape:window-y="-4" inkscape:window-maximized="1">
	</sodipodi:namedview>
<path fill="#9E0000" stroke="#000000" stroke-width="9" d="M537.226,708.104c-0.391,0.41-2,7.021-2.961,9.94
	c-1.22,3.67-3.5,7.76-6.35,11.43c-8.229,10.59-11.51,16-11.51,19.04c0,4.81-2.47,11.91-4.84,13.88c-1.95,1.64-2.17,2.37-2.03,6.96
	c0.22,7.37,6.22,19.83,9.86,20.521c1.38,0.27,1.71,1.1,1.88,4.55c0.21,4.22,0.21,4.229-4.2,7.2c-3.54,2.369-4.74,3.79-5.98,7.14
	c-1.47,3.95-1.479,4.4-0.159,7.85c0.77,2.021,1.189,4.24,0.93,4.92c-0.63,1.641-4.12,1.591-5.19-0.079
	c-1.31-2.04-8.66-3.57-12.35-2.591c-2.84,0.761-3.83,0.45-11.45-3.359c-7.8-3.891-8.53-4.46-10.979-8.8
	c-3.12-5.54-7.801-10.29-13.04-13.25c-3.44-1.961-4.391-2.101-10.021-1.65c-5.76,0.47-6.67,0.3-11.72-2.11
	c-3.08-1.47-6.98-4.239-8.97-6.35c-1.931-2.05-4.021-3.73-4.631-3.73c-2.979,0-13.59-6.37-17.13-10.29
	c-2.97-3.279-4.659-4.399-7.62-5.05c-2.1-0.46-5.22-1.81-6.96-3.01c-3.01-2.08-3.529-2.14-10.6-1.59l-7.44,0.58l-5.1-4.63
	c-4.39-3.971-5.25-5.261-6.14-9.101c-0.9-3.91-0.86-4.569,0.32-5.229c0.88-0.49,1.28-1.7,1.14-3.44c-0.26-3.27,1.45-8.7,3.65-11.56
	c0.89-1.16,3.98-3.5,6.82-5.181l5.16-3.069l4.02,4.13c2.21,2.26,4.62,4.12,5.37,4.12c1.73,0,8.061-3.2,8.061-4.07
	c0-0.37-0.46-1.13-1.03-1.7c-0.8-0.8-0.51-1.54,1.3-3.35c1.86-1.86,3.561-2.47,8.7-3.2c6.03-0.86,6.45-0.82,7.59,0.82
	c0.67,0.949,1.22,2.569,1.22,3.59c0,1.5,1.73,2.77,8.811,6.56c10.35,5.55,13.83,6.011,19.7,2.57c3.6-2.11,3.85-2.15,10.55-1.17
	c12.57,1.84,26.96-0.79,34.52-6.34c3.65-2.69,4.91-3.13,8.73-3.12c2.45,0,5.96,0.62,7.8,1.399l3.36,1.4l12.59-6.3
	c12.05-6.01,12.77-6.23,15.92-5.391C536.965,708.034,537.095,708.064,537.226,708.104z"/>
<path fill="none" stroke="#000000" stroke-width="9" d="M537.285,708.125c-0.021,0-0.04-0.011-0.06-0.021
	C537.245,708.074,537.265,708.085,537.285,708.125z"/>
<path fill="none" stroke="#000000" stroke-width="9" d="M695.315,584.554c-3.23,3.49-4.551,7.27-4.551,13.07
	c0,4.739-0.14,5.1-1.909,5.08c-1.04-0.021-2.851-0.58-4.021-1.25c-1.16-0.66-3.109-1.221-4.34-1.24
	c-2.76-0.04-9.97-5.82-11.34-9.101c-0.54-1.3-0.8-3.739-0.58-5.449c0.479-3.74-4.07-14.37-6.96-16.271
	c-2.23-1.45-12.67-2.97-19.101-2.77c-4.119,0.13-5.399-0.32-11.369-3.78c-3.7-2.15-6.86-4.26-7.011-4.71
	c-0.149-0.45,0.63-1.811,1.75-3.021l2.03-2.159l-5.6-0.82c-3.08-0.45-6.38-0.521-7.33-0.16c-1.811,0.67-8.01,6.68-8.01,7.75
	c0,0.34-1.53,2.79-3.391,5.44c-1.859,2.659-3.38,5.359-3.38,6.01c0,2.09-2.69,6.53-5.32,8.75c-2.27,1.92-2.569,2.68-2.43,6.27
	c0.12,3.34-0.45,5.2-3.229,10.261c-1.87,3.409-3.41,6.8-3.41,7.539c0,2.181,3.25,7.91,5.02,8.86c0.9,0.48,3.23,0.87,5.16,0.87
	c2.98,0,4.48,0.75,10,4.98c3.56,2.729,7.81,5.6,9.44,6.369c1.63,0.771,3.88,2.08,5,2.94c1.909,1.47,1.979,1.79,1.06,5.45
	c-1.44,5.7-1.28,18.49,0.26,20.52c2.53,3.351,0.641,13.07-2.54,13.07c-0.68,0-1.239-0.32-1.239-0.69s-1.54-1.08-3.44-1.59
	c-4.44-1.18-9.25,0.21-17.01,4.9c-7.62,4.6-9.53,8.14-7.82,14.54c0.64,2.42,1.18,6.99,1.18,10.13c0.011,5.58-0.08,5.79-3.46,9.07
	c-2.06,2.01-4.62,3.59-6.35,3.92c-4.28,0.8-12.76,11.12-13.49,16.42c-0.62,4.55-2.28,8.47-4.359,10.34
	c-1.461,1.31-4.29,1.42-19.601,0.72c-0.63-0.03-2.189-1.2-3.49-2.59c-2.21-2.37-2.35-2.86-1.93-8.07
	c0.25-3.189,0.07-6.359-0.45-7.43c-0.5-1.02-0.279-7.89-0.47-8.59v-0.01c1.59,0.5,2.82,1.27,2.82,1.83c0,1.319,0.68,1.359,4,0.21
	c3.1-1.08,6.68-7.181,8.33-14.2c0.97-4.17,0.939-5.061-0.19-6.8c-0.71-1.11-2.02-2.21-2.91-2.44c-0.88-0.23-1.609-0.58-1.609-0.79
	c0-1.47,2.27-3.84,5.899-6.16c3.66-2.35,4.851-2.689,8.7-2.439c4.35,0.29,4.479,0.229,5.92-2.67c2.07-4.141,2-9.83-0.13-10.391
	c-0.89-0.229-2.28-1.67-3.07-3.2c-2-3.869-4.63-15.319-4.63-20.159c0-5.37-1.99-11.62-5.05-15.761
	c-4.771-6.46-8.23-14.14-8.75-19.47c-0.771-7.76-1.28-9.8-3.68-14.38c-4.4-8.4-9.421-10.28-13.57-5.08
	c-1.3,1.63-3.08,2.96-3.94,2.96c-0.859,0-4.85-3.05-8.88-6.77c-4.04-3.721-7.859-6.771-8.52-6.771c-0.66-0.01-2.851-0.96-4.87-2.15
	c-4.37-2.56-4.891-4.819-2.33-10.05c1.7-3.47,1.6-4.08-2.061-11.79c-3.939-8.31-7.55-12.17-10.13-10.79
	c-0.949,0.5-2.479,0.92-3.38,0.92c-0.91,0-2.14,0.601-2.75,1.351c-0.83,0.99-2.04,1.25-4.47,0.93c-2.35-0.32-4.24,0.01-6.38,1.16
	c-3.641,1.95-6.03,2.11-6.03,0.37c0-1.26,0.45-1.73,5.771-6.14c3.5-2.9,3.13-3.95-2.99-8.11c-4.08-2.78-5.01-3.08-6.561-2.25
	c-1,0.53-3.439,0.83-5.42,0.68c-2.85-0.21-3.84-0.7-4.68-2.38c-0.59-1.16-2.22-4.4-3.63-7.189
	c-3.75-7.461-9.48-16.551-12.351-19.601c-2.43-2.58-6.989-4.14-7.88-2.7c-0.739,1.2-4.699,0.78-11.77-1.29
	c-6.15-1.8-7.07-1.88-10.08-0.819c-1.82,0.64-3.8,1.54-4.39,2.029c-0.591,0.49-2.341,0.79-3.891,0.641
	c-2.04-0.2-2.859-0.73-3.04-1.96c-0.14-0.931-1.85-3.5-3.81-5.71c-3.101-3.5-4.601-4.38-11.561-6.771c-7.54-2.6-8.17-3.02-11-7.06
	c-3.05-4.36-10.92-12.37-15.92-16.221c-1.51-1.159-2.75-2.71-2.75-3.439c0-0.73-0.79-2.97-1.77-5c-2.15-4.43-12.3-11.8-16.88-12.24
	c-2.57-0.25-3.14-0.81-5.63-5.77c-1.53-3.02-2.77-6.12-2.78-6.87c-0.02-1.86-5.73-7.65-9.36-9.5c-1.61-0.82-4.55-2.38-6.54-3.49
	c-5.21-2.91-9.21-3.07-11.18-0.45c-1.35,1.78-1.91,1.95-3.89,1.24c-4.59-1.63-4.9-6.35-0.48-7.01c1.41-0.21,1.8-0.86,1.8-2.91
	c0-4.59-12.62-19.25-16.58-19.25c-0.47,0-2.08-1.26-3.57-2.8c-2.23-2.3-2.61-3.27-2.2-5.35c0.63-3.16-0.85-4.52-5.58-5.15
	c-3.15-0.43-3.67-0.86-5.63-4.74c-1.71-3.37-2.07-5.09-1.72-8.14c0.96-8.44-2.44-18.13-8.7-24.71c-1.93-2.02-3.42-4.38-3.42-5.47
	c0-1.06-0.33-2.16-0.74-2.41s-1.01-5.32-1.34-11.27c-0.44-7.63-1.07-11.78-2.17-14.17c-2.08-4.51-9.02-12.28-10.98-12.28
	c-0.86,0-5.43-1.38-10.18-3.09c-8.25-2.96-18.23-9.09-26.66-16.35c-3.28-2.82-4.95-3.42-19.79-7.3l-12.19-3.2l-5.45,2.83
	c-6.2,3.22-11.04,7.77-11.69,10.98c-0.83,4.16-2.45,6.33-5.1,6.88c-1.43,0.29-3.05,0.79-3.6,1.13c-1.4,0.87-6.9,11.95-6.9,13.92
	c0,2.98-10.77,9.56-17.51,10.68c-1.95,0.33-4,1.11-4.55,1.77c-0.71,0.86-2.9,1.22-7.54,1.22h-6.56l-1.08-3.81l-1.06-3.78l4.89-5.26
	c2.68-2.9,5.42-6.56,6.09-8.15c1.12-2.69,1.07-3.05-0.64-4.87c-1.01-1.07-1.58-2.35-1.27-2.85c0.89-1.43-2.13-1.03-6.19,0.82
	c-6.2,2.81-10.05,2.26-18.94-2.67c-10.83-6.02-11.29-6.38-14.46-10.79c-2.17-3.02-3.05-5.35-3.76-10.11l-0.9-6.19l3.47-6.08
	c1.9-3.35,4.15-6.98,5-8.09c0.94-1.24,1.53-3.45,1.53-5.69c0-4.23-1.38-5.42-6.35-5.42c-5.29,0-8.83-3.36-12.64-11.98
	c-1.82-4.13-3.64-7.49-4.02-7.49s-0.69-0.57-0.69-1.27c0-0.7,0.56-1.27,1.22-1.27c0.66,0,2.94-0.75,5.08-1.67
	c3.06-1.31,4.39-1.47,6.18-0.79c1.96,0.74,3.3,0.36,9.21-2.56c3.8-1.89,7.17-4.11,7.48-4.92c0.32-0.82,0.77-3.79,1.04-6.62
	c0.52-5.63,1.15-4.57-6.99-11.98c-1.12-1.02-2.06-2.7-2.06-3.73c0-1.03-2.26-4.6-5.08-8.01c-4.55-5.5-5.08-6.53-5.08-9.95
	c0-3.12,0.41-4.13,2.25-5.58c1.25-0.98,2.92-1.58,3.73-1.32c2.21,0.7,5.87-1.32,6.43-3.54c0.6-2.42,2.45-2.55,3.67-0.27
	c1.25,2.33,6.94,2.3,10.24-0.05c1.83-1.31,3.14-1.6,5.31-1.19c2.38,0.44,3.51,0.09,6.48-2.06c4.45-3.23,8.15-3.39,12.49-0.56
	c1.73,1.14,4.13,2.3,5.31,2.59c1.84,0.45,2.34,0.12,3.39-2.27c0.7-1.59,1.94-2.92,2.91-3.07c4.16-0.64,6.09-2.18,9.18-7.35
	c2.14-3.59,3.15-6.24,2.98-7.8c-0.16-1.58,1.09-4.84,3.73-9.68c2.2-4.03,4-7.71,4-8.18c0-1.53,5.81-4.51,8.25-4.23
	c2.31,0.27,2.34,0.35,2.22,5.77c-0.06,3.02-0.39,6.66-0.71,8.09c-0.52,2.27-0.06,3.23,3.7,7.72c4.68,5.6,8.25,7.7,10.79,6.35
	c2.3-1.22,7.41,1.39,7.78,3.97c0.15,1.1-0.13,2.4-0.64,2.91c-1.59,1.59-1.02,3.91,1.09,4.44c1.45,0.36,2.29,1.47,3.04,4.02
	c1.47,4.97,2.12,6.03,3.89,6.38c3.05,0.6,5.21-5.24,2.27-6.17c-0.81-0.26-1.95-1.22-2.54-2.17c-1.59-2.54,4.59-15.33,8.7-18.01
	c5.11-3.31,9.27-16.45,5.98-18.86c-1.15-0.84-1.29-1.62-0.71-3.88c0.58-2.27,1.38-3.05,3.91-3.89c2.86-0.95,3.41-0.88,5.66,0.79
	c2.05,1.52,2.49,2.47,2.49,5.29c0.01,8.82,9.65,14.04,14.94,8.1c1.36-1.52,4.09-3.13,6.77-3.97c4.29-1.35,4.59-1.35,6.22,0.13
	c0.98,0.88,1.69,2.62,1.69,4.05c0,3.49,2.5,7.4,4.74,7.4c3.03,0,3.92-1.92,3.28-7.09c-0.53-4.19-0.91-4.89-3.97-7.01
	c-3.18-2.2-3.36-2.56-2.99-5.81c0.22-1.91,1.43-5.01,2.7-6.93c3.91-5.92,11.56-7.79,10.29-2.52c-0.72,2.98,9.92,5.61,11.03,2.73
	c0.26-0.69-0.03-4.4-0.67-8.25c-0.8-4.86-0.92-8.35-0.39-11.4c0.74-4.28,0.83-4.39,3.2-3.92c1.34,0.27,4.11,0.02,6.16-0.55
	c3.28-0.92,4.06-0.88,6.35,0.47c1.44,0.85,2.59,2.04,2.59,2.65c0,2.08,5.26,4.53,9.23,4.28c4.48-0.27,6.83-2.86,7.01-7.64
	c0.2-5.14,3.3-7.35,14.02-9.92c7.84-1.88,9.98-2.08,15.45-1.48c3.49,0.38,6.48,1.07,6.63,1.51c0.51,1.43,2.64,0.86,14.31-3.89
	c5.95-2.42,11.33-4.25,12.51-4.26c0.08,0,0.15-0.02,0.2,0.01c1.71,0.66,0.96,4.91-1.06,5.95c-3.68,1.88-3.75,2.04-2.75,4.92
	c1,2.87,2.55,4.84,3.81,4.84c1.46,0,5.17,4.73,7.8,10c3.47,6.94,5.8,8.02,21.18,9.7c1.17,0.13,3.069,0.7,4.229,1.25
	c3.76,1.76,22.21,5.12,30.68,5.6c9,0.52,19.261,2.86,19.261,4.39c0,3.3-2.021,6.05-6.141,8.36c-2.439,1.37-6.21,4.16-8.38,6.19
	c-3.689,3.45-3.899,3.88-3.09,6.19c0.92,2.65,1.521,3,2.9,1.61c0.6-0.59,2.069-0.34,4.63,0.82c2.06,0.94,4.399,1.71,5.21,1.72
	c3.109,0.04,1.26,6.36-2.59,8.86c-3.08,2.01-5.41,5.77-4.71,7.59c0.58,1.51,2.479,1.8,3.279,0.51c0.29-0.47,1.311-0.85,2.28-0.85
	c1.59,0,1.72,0.37,1.34,4.31c-0.22,2.38-0.93,4.64-1.56,5.03c-0.851,0.52-0.95,1.29-0.34,3.01c0.619,1.74,2.149,2.88,6.22,4.6
	c4.52,1.92,5.78,2.93,7.93,6.4c1.41,2.28,2.91,4.29,3.311,4.45c1.31,0.5,0.76,2.32-1.24,4.2c-2.44,2.29-10.74,2.74-10.74,0.58
	c0-0.79,0.8-1.27,2.11-1.27c2.63,0,2.63-0.26-0.05-4.84c-2.431-4.14-8.301-8.85-10.16-8.14c-0.66,0.25-1.21,1.49-1.21,2.75
	c0,1.78-0.73,2.71-3.28,4.15c-1.81,1.02-3.91,1.85-4.66,1.85c-1.8,0-1.76-2.21,0.05-2.91c1.28-0.49,1.25-0.66-0.26-1.72
	c-0.93-0.65-4.28-1.85-7.43-2.69l-5.74-1.54l-1.59,1.96c-1.24,1.53-1.46,2.76-1.061,5.69c0.511,3.72,0.5,3.75-2.06,3.75
	c-2.51,0-7.35,2.28-25.71,12.12c-4.95,2.65-9.61,4.81-10.37,4.81c-0.76,0-2.02,1.33-2.8,2.96c-1.37,2.88-2.8,3.92-2.8,2.04
	c0-3.12,9.44-13.93,11.48-13.15c0.6,0.24,1.51-0.06,2.01-0.66c0.67-0.81,0.39-1.32-1.11-2.01c-1.74-0.79-2.76-0.4-7.62,2.86
	c-5.01,3.36-5.97,4.48-8.99,10.5l-3.39,6.72l5.58,8.27c6.43,9.54,10.86,14.43,13.38,14.79c2.74,0.39,2.72,4.49-0.07,9.94
	c-2.63,5.14-4.18,6.22-4.74,3.28c-0.28-1.47-0.39-1.28-0.48,0.8c-0.09,2.14-0.48,2.75-1.79,2.75c-0.93,0-2.17-0.76-2.75-1.7
	c-1.58-2.52-2.11-2.11-3.07,2.39c-1.69,7.89,2.86,34.38,7.17,41.68c0.95,1.62,5.03,6.41,9.07,10.66c6.54,6.87,7.75,7.78,11.08,8.28
	c4.29,0.64,8.149,3.24,16.79,11.29c8.96,8.34,14.57,12.76,18.17,14.36c3.25,1.45,3.86,1.63,6.189,1.8
	c1.95,0.14,6.87,5.26,6.351,6.61c-0.24,0.64,0.88,4.33,2.49,8.2c6.02,14.55,10.58,27.78,10.58,30.65c0,1.64,0.699,4.78,1.56,6.96
	c0.85,2.18,2.44,6.63,3.52,9.89c3.681,11.17,7.61,16.71,21.471,30.26c7.029,6.87,13.56,12.7,14.5,12.96c3.52,0.97,5.5,2.39,5.5,3.94
	c0,4.01,4.43,7.65,12.56,10.34c2.48,0.82,4.69,1.99,4.92,2.59c0.23,0.61,1.641,1.57,3.12,2.12c1.48,0.55,3.54,1.41,4.58,1.9
	c2.05,0.979,29.51,0.289,40.83-1.03c8.77-1.01,11.93,0.03,13.81,4.58c2.221,5.359,1.87,8.239-1.43,11.64
	c-1.57,1.62-5.1,4.061-7.83,5.44c-4.72,2.399-4.96,2.71-5.21,6.01c-0.21,2.86,0.19,3.96,2.33,6.399c1.43,1.62,3.45,3.171,4.5,3.44
	c1.04,0.26,7.21,3.32,13.72,6.79c12.511,6.67,16.101,8.3,31.74,14.37c17.09,6.62,19.37,7.899,27.11,15.439
	c6.029,5.87,8.51,7.631,15.26,10.771c4.44,2.05,10.35,4.58,13.12,5.6c6.649,2.45,7.95,3.511,9.13,7.49
	c0.74,2.51,2.33,4.44,6.48,7.83c10.939,8.93,14.409,12.8,17.43,19.33C698.125,578.835,698.255,581.375,695.315,584.554z"/>
<g>
	<path stroke="#FFFFFF" d="M446.372,707.012c2.182-1.83,4.368-3.651,6.483-5.561c1.191,0.435,2.869-0.354,2.688-1.813
		c-1.608-13.124-3.195-26.253-4.851-39.373c-1.6-12.685-3.514-25.397-7.521-37.576c-0.387-1.176-2.09-1.89-3.104-0.972
		c-4.414,3.991-8.096,8.487-11.104,13.529c-6.354-14.213-13.958-27.871-22.728-40.735c-8.155-11.961-17.148-24.123-27.926-33.878
		c-8.955-8.103-18.597-15.533-28.261-22.768c-4.063-3.042-8.782-3.799-12.328,0.541c-3.788,4.633-6.917,10.001-10.368,14.896
		c-3.822,5.421-7.758,10.72-11.814,15.965c-5.378,6.951-11.689,13.749-14.436,22.174c-0.659,0.406-0.462,1.48,0.2,1.652
		c-0.714,3.679-1.315,7.848,0.133,11.248c1.52,3.563,4.695,4.166,8.159,4.763c10.704,1.852,21.22,4.694,31.403,8.479
		c13.527,5.03,26.361,11.803,38.258,19.962c4.107,2.817,8.137,5.742,11.984,8.906c1.99,1.635,3.99,3.291,5.843,5.083
		c3.114,3.01,4.549,6.104,6.603,9.963c-0.781,0.646-1.559,1.296-2.309,1.979c-4.671,4.245-8.607,9.188-11.901,14.562
		c-0.657,0.041-1.278,0.41-1.497,1.203c-0.928,3.35-4.967,11.344-0.912,14.063c1.508,1.012,3.584,0.855,5.293,0.919
		c3.547,0.131,7.084,0.329,10.619,0.638c7.961,0.696,15.9,1.843,23.723,3.498c2.125,0.45,4.365,0.884,6.554,1.472
		c0.065,0.077,0.16,0.135,0.25,0.149c0.11,0.019,0.207,0.007,0.31,0.004c4.155,1.177,8.063,2.984,10.559,6.663
		C444.841,707.346,445.708,707.568,446.372,707.012z"/>
	<path stroke="#FFFFFF" d="M432.979,696.777c0.959-1.871,1.648-3.963,2.252-5.987c0.754,0.361,1.502,0.739,2.248,1.119
		c-0.908,1.273-1.819,2.543-2.692,3.838c-0.3,0.443-0.605,0.866-0.871,1.299C433.604,696.954,433.292,696.863,432.979,696.777z"/>
	<path stroke="#FFFFFF" d="M427.831,695.596c1.039-1.39,1.646-3.546,2.19-4.951c0.24-0.618,0.502-1.252,0.693-1.894
		c0.871,0.365,1.732,0.759,2.592,1.15c-0.518,1.211-1.057,2.411-1.643,3.593c-0.43,0.868-0.902,1.735-1.303,2.629
		C429.518,695.933,428.671,695.758,427.831,695.596z"/>
	<path stroke="#FFFFFF" d="M419.889,694.212c-0.552-0.1-1.107-0.182-1.66-0.276c0.58-1.036,0.783-2.438,1.123-3.48
		c0.564-1.736,1.226-3.438,1.935-5.12c0.991,0.309,1.979,0.624,2.963,0.961c-1.005,2.695-2.279,5.383-3.097,8.14
		C420.723,694.362,420.302,694.287,419.889,694.212z"/>
	<path stroke="#FFFFFF" d="M412.972,693.111c1.47-2.816,2.313-6.152,3.3-9.19c1.219,0.309,2.433,0.635,3.638,0.988
		c-0.72,1.514-1.407,3.043-2.013,4.604c-0.515,1.327-1.135,2.729-1.246,4.156C415.428,693.471,414.2,693.286,412.972,693.111z"/>
	<path stroke="#FFFFFF" d="M407.919,692.458c1.74-2.846,2.635-6.381,3.462-9.665c1.188,0.239,2.368,0.506,3.546,0.788
		c-1.233,2.974-2.727,6.213-3.178,9.357C410.475,692.766,409.197,692.607,407.919,692.458z"/>
	<path stroke="#FFFFFF" d="M402.523,691.913c0.353-1.167,0.595-2.381,0.877-3.55c0.541-2.235,1.236-4.408,2.029-6.563
		c1.463,0.203,2.918,0.438,4.369,0.707c-1.367,3.234-3.209,6.357-4.145,9.692C404.613,692.094,403.568,692.003,402.523,691.913z"/>
	<path stroke="#FFFFFF" d="M400.127,691.703c-0.527-0.04-1.155-0.042-1.833-0.033c0.478-1.414,0.724-2.928,1.065-4.366
		c0.48-2.017,0.955-4.029,1.466-6.037c1.032,0.098,2.063,0.198,3.092,0.328c-1.498,3.15-3.242,6.675-3.706,10.116
		C400.184,691.708,400.154,691.705,400.127,691.703z"/>
	<path stroke="#FFFFFF" d="M394.586,691.738c0.461-0.973,0.702-2.104,0.992-3.099c0.736-2.524,1.184-4.92,1.332-7.55
		c0.002-0.043-0.012-0.07-0.012-0.108c0.818,0.044,1.641,0.081,2.459,0.146c-1.158,3.419-2.492,7.021-2.864,10.586
		C395.861,691.729,395.218,691.741,394.586,691.738z"/>
	<path stroke="#FFFFFF" d="M390.811,691.299c0.625-1.354,0.854-2.933,1.314-4.339c0.671-2.053,1.445-4.092,2.264-6.093
		c0.413,0.011,0.823,0.028,1.235,0.044c-0.031,0.047-0.063,0.094-0.084,0.147c-0.817,2.148-1.427,4.356-2.187,6.529
		c-0.455,1.302-1.205,2.614-1.393,3.978C391.543,691.501,391.156,691.414,390.811,691.299z"/>
	<path stroke="#FFFFFF" d="M422.773,694.707c1.336-2.4,2.002-5.34,2.765-7.955c1.258,0.45,2.504,0.923,3.739,1.423
		c-0.518,1.214-1.414,2.398-1.948,3.459c-0.614,1.219-1.283,2.303-1.501,3.594C424.79,695.043,423.766,694.873,422.773,694.707z"/>
	<path stroke="#FFFFFF" d="M436.146,697.783c0.037-0.064,0.078-0.137,0.115-0.196c0.98-1.592,1.889-3.226,2.844-4.833
		c0.769,0.409,1.527,0.827,2.285,1.256c-0.492,0.829-1.049,1.613-1.711,2.325c-0.641,0.687-1.584,1.235-2.117,2.006
		C437.098,698.144,436.626,697.96,436.146,697.783z"/>
	<path stroke="#FFFFFF" d="M444.087,695.605c-0.83,0.88-1.701,1.721-2.637,2.489c-0.25,0.206-0.517,0.394-0.773,0.578
		c0.244-0.279,0.474-0.568,0.691-0.844c0.694-0.868,1.266-1.815,1.748-2.813C443.441,695.21,443.764,695.406,444.087,695.605z"/>
	<path stroke="#FFFFFF" d="M442.988,699.788c1.013-0.979,1.933-2.039,2.796-3.149c0.342,0.219,0.678,0.45,1.02,0.674
		c-1.139,0.486-2.274,1.484-3.141,2.097c-0.476,0.335-1.197,0.868-1.479,1.472c-0.063-0.045-0.13-0.087-0.193-0.134
		C442.345,700.435,442.673,700.094,442.988,699.788z"/>
	<path stroke="#FFFFFF" d="M450.874,700.11c-0.166,0.127-0.334,0.252-0.498,0.378c0.144-0.145,0.287-0.288,0.426-0.429
		C450.825,700.076,450.85,700.094,450.874,700.11z"/>
	<path stroke="#FFFFFF" d="M367.986,610.635c-1.57,4.117-3.793,8.116-4.814,12.344c-0.174,0.718,0.661,1.185,1.15,0.599
		c2.615-3.141,3.881-7.95,4.979-12.122c1.139,0.729,2.258,1.479,3.373,2.24c-2.122,3.599-4.777,7.86-5.634,12.103
		c-1.41-0.8-2.827-1.588-4.256-2.348c-0.732-0.39-1.472-0.764-2.21-1.144c1.128-2.904,2.019-5.886,3.337-8.744
		c0.724-1.569,1.166-3.062,1.075-4.749C365.995,609.406,366.993,610.016,367.986,610.635z"/>
	<path stroke="#FFFFFF" d="M406.229,657.551c-0.406,0.064-0.807,0.113-1.194,0.181c-0.032-0.097-0.066-0.193-0.103-0.29
		c1.741-0.27,3.475-0.973,5.141-1.647c-0.147,0.496-0.43,0.927-0.831,1.341C408.234,657.263,407.229,657.39,406.229,657.551z"/>
	<path stroke="#FFFFFF" d="M407.297,654.484c0.889-0.518,1.729-1.096,2.445-1.602c0.169,0.452,0.281,0.854,0.355,1.223
		C409.188,654.219,408.236,654.326,407.297,654.484z"/>
	<path stroke="#FFFFFF" d="M409.011,651.472c-1.493,0.545-3.015,1.018-4.534,1.482c-0.649,0.199-1.256,0.332-1.756,0.6
		c-0.046-0.061-0.088-0.121-0.134-0.182c0.831-0.19,1.56-0.676,2.401-1.083c1.147-0.555,2.287-1.128,3.428-1.698
		C408.619,650.88,408.822,651.174,409.011,651.472z"/>
	<path stroke="#FFFFFF" d="M407.47,649.228c-0.909,0.354-1.819,0.711-2.726,1.072c-1.192,0.475-2.463,0.747-3.317,1.651
		c-0.104-0.121-0.206-0.24-0.308-0.355c0.922-0.537,1.75-1.299,2.605-1.916c0.905-0.658,1.834-1.285,2.771-1.896
		C406.818,648.267,407.154,648.739,407.47,649.228z"/>
	<path stroke="#FFFFFF" d="M405.643,646.516c-1.057,0.506-2.097,1.041-3.113,1.634c-0.953,0.557-2.031,1.131-2.805,1.945
		c-0.436-0.453-0.877-0.901-1.328-1.344c0.797-0.569,1.513-1.321,2.248-1.931c1.1-0.909,2.225-1.781,3.37-2.625
		C404.566,644.963,405.109,645.737,405.643,646.516z"/>
	<path stroke="#FFFFFF" d="M403.117,642.972c-1.288,0.729-2.563,1.479-3.788,2.314c-0.896,0.613-1.841,1.167-2.545,1.932
		c-0.343-0.314-0.685-0.629-1.033-0.938c0.877-0.667,1.677-1.52,2.416-2.182c1.174-1.048,2.249-2.18,3.287-3.348
		C402.018,641.484,402.568,642.229,403.117,642.972z"/>
	<path stroke="#FFFFFF" d="M400.597,639.677c-0.948,0.729-1.899,1.457-2.827,2.215c-1.168,0.949-2.654,1.786-3.773,2.866
		c-0.479-0.404-0.955-0.809-1.438-1.206c1.204-0.741,2.223-1.952,3.197-2.872c1.078-1.017,2.125-2.059,3.175-3.098
		C399.5,638.27,400.043,638.979,400.597,639.677z"/>
	<path stroke="#FFFFFF" d="M397.845,636.321c-1.222,0.964-2.437,1.937-3.64,2.926c-1.167,0.962-2.411,1.802-3.24,3.006
		c-0.529-0.428-1.063-0.853-1.592-1.274c1.036-0.793,1.941-1.809,2.771-2.739c1.26-1.414,2.412-2.911,3.506-4.453
		C396.398,634.617,397.12,635.469,397.845,636.321z"/>
	<path stroke="#FFFFFF" d="M394.654,632.714c-1.379,1.553-2.854,3.011-4.373,4.434c-0.872,0.814-1.813,1.588-2.618,2.473
		c-0.369-0.293-0.747-0.577-1.119-0.867c1.209-0.988,2.262-2.438,3.112-3.497c1.175-1.467,2.152-3.033,3.01-4.684
		C393.342,631.274,393.997,631.996,394.654,632.714z"/>
	<path stroke="#FFFFFF" d="M391.939,629.839c-0.957,1.475-2.021,2.882-3.152,4.228c-1.09,1.294-2.491,2.364-3.611,3.631
		c-0.313-0.239-0.632-0.477-0.947-0.714c0.618-0.619,0.931-1.357,1.385-2.15c0.603-1.046,1.353-1.998,2.046-2.981
		c0.926-1.312,1.708-2.625,2.222-4.064C390.575,628.462,391.262,629.146,391.939,629.839z"/>
	<path stroke="#FFFFFF" d="M388.693,626.632c-1.588,3.247-5.633,5.699-5.875,9.314c-0.355-0.259-0.705-0.524-1.063-0.779
		c0.075-0.073,0.138-0.159,0.161-0.266c0.426-1.865,0.667-3.761,1.258-5.588c0.619-1.915,1.516-3.725,2.494-5.479
		C386.691,624.75,387.697,625.686,388.693,626.632z"/>
	<path stroke="#FFFFFF" d="M384.939,623.207c-2.422,3.105-4.217,7.354-4.129,11.3c-1.267-0.892-2.546-1.764-3.836-2.618
		c2.219-3.385,4.002-7.48,4.85-11.345c0.031,0.025,0.063,0.053,0.096,0.076C382.943,621.463,383.943,622.332,384.939,623.207z"/>
	<path stroke="#FFFFFF" d="M380.813,619.742c-1.156,1.88-2.004,3.989-2.918,5.982c-0.799,1.744-1.602,3.47-2.324,5.233
		c-0.896-0.581-1.801-1.147-2.709-1.712c0.925-1.235,1.559-2.765,2.177-4.133c1.131-2.51,1.968-5.156,2.646-7.827
		C378.742,618.086,379.781,618.91,380.813,619.742z"/>
	<path stroke="#FFFFFF" d="M376.4,616.345c-0.67,2.195-1.47,4.326-2.51,6.388c-0.908,1.797-2.121,3.495-3.003,5.314
		c-0.741-0.445-1.483-0.89-2.229-1.322c0.639-1.401,1.002-2.961,1.543-4.384c1.038-2.719,2.159-5.377,3.474-7.966
		C374.595,615.016,375.499,615.68,376.4,616.345z"/>
	<path stroke="#FFFFFF" d="M363.84,608.156c-0.135,0.133-0.23,0.305-0.232,0.504c-0.012,2.973-2.332,5.568-3.429,8.266
		c-0.598,1.467-1.051,2.964-1.3,4.507c-0.822-0.414-1.654-0.812-2.484-1.21c2.545-3.967,2.822-9.23,4.734-13.592
		C362.041,607.124,362.939,607.641,363.84,608.156z"/>
	<path stroke="#FFFFFF" d="M359.882,605.974c-2.25,4.22-3.37,9.011-4.987,13.519c-1.521-0.718-3.054-1.407-4.595-2.081
		c2.906-3.812,2.651-9.499,4.9-13.795C356.775,604.371,358.336,605.156,359.882,605.974z"/>
	<path stroke="#FFFFFF" d="M354.064,603.071c-2.597,4.104-3.328,9.237-5.113,13.765c-1.395-0.597-2.797-1.176-4.208-1.734
		c1.735-4.524,2.856-9.329,4.163-13.974c0.044-0.153,0.015-0.273-0.051-0.364C350.605,601.491,352.343,602.268,354.064,603.071z"/>
	<path stroke="#FFFFFF" d="M347.854,600.936c-1.607,4.479-3.358,8.969-4.576,13.582c-1.541-0.597-3.084-1.173-4.64-1.724
		c0.123-0.057,0.232-0.146,0.296-0.27c2.289-4.342,3.586-9.145,4.691-13.901c1.646,0.659,3.257,1.319,4.814,1.96
		C348.199,600.581,347.943,600.691,347.854,600.936z"/>
	<path stroke="#FFFFFF" d="M342.65,598.237c-0.06,0.069-0.107,0.146-0.131,0.239c-1.233,4.722-3.029,9.229-4.55,13.857
		c-0.026,0.085-0.034,0.159-0.03,0.225c-0.744-0.26-1.488-0.512-2.236-0.762c1.83-4.715,3.42-9.547,4.623-14.467
		C341.109,597.629,341.883,597.933,342.65,598.237z"/>
	<path stroke="#FFFFFF" d="M339.229,596.914c-1.851,4.729-3.289,9.629-4.484,14.558c-1.315-0.432-2.637-0.842-3.962-1.238
		c1.968-4.692,3.206-9.801,4.808-14.633C336.814,596.024,338.029,596.464,339.229,596.914z"/>
	<path stroke="#FFFFFF" d="M334.118,595.1c-2.054,4.688-4.048,9.608-4.995,14.651c-1.003-0.289-2.006-0.573-3.012-0.846
		c1.211-5.054,2.285-10.088,3.867-15.069c0.004-0.01,0-0.017,0.004-0.024C331.372,594.209,332.751,594.644,334.118,595.1z"/>
	<path stroke="#FFFFFF" d="M328.71,593.456c-2.177,4.731-3.792,9.805-4.334,15.001c-1.695-0.438-3.394-0.854-5.101-1.241
		c1.066-1.961,1.828-4.07,2.379-6.264c0.728-2.889,0.6-5.969,1.422-8.809C324.961,592.505,326.842,592.946,328.71,593.456z"/>
	<path stroke="#FFFFFF" d="M321.809,591.916c-0.978,2.258-1.067,4.769-1.646,7.186c-0.639,2.67-1.665,5.202-2.771,7.702
		c-0.924-0.199-1.847-0.396-2.773-0.582c0.57-2.489,2.069-4.646,2.946-7.079c0.893-2.477,1.278-5.047,1.311-7.647
		C319.852,591.61,320.829,591.75,321.809,591.916z"/>
	<path stroke="#FFFFFF" d="M309.77,591.328c0.936-0.087,1.879-0.14,2.826-0.157c-0.932,1.717-1.53,3.62-2.193,5.452
		c-0.955,2.643-2.131,5.268-2.437,8.077c-0.01,0.083-0.009,0.161-0.003,0.237c-0.24-0.092-0.472-0.195-0.696-0.309
		C308.003,600.169,307.849,595.273,309.77,591.328z"/>
	<path stroke="#FFFFFF" d="M309.952,605.488c0.083-0.138,0.141-0.304,0.161-0.51c0.469-4.771,3.229-9.083,4.114-13.809
		c1.03,0.021,2.067,0.076,3.106,0.166c-0.738,2.952-1.705,5.864-3.001,8.612c-0.959,2.034-2.041,3.755-2.362,5.864
		C311.298,605.721,310.618,605.62,309.952,605.488z"/>
	<path stroke="#FFFFFF" d="M305.541,591.992c0.896-0.2,1.8-0.362,2.71-0.487c-1.188,2.228-1.542,4.608-1.941,7.181
		c-0.243,1.558-0.487,3.128-0.667,4.703c-0.368-0.431-0.673-0.933-0.882-1.547C303.807,599.024,304.874,594.963,305.541,591.992z"/>
	<path stroke="#FFFFFF" d="M405.434,659.871c0.174-0.049,0.351-0.101,0.522-0.158c-0.173,0.133-0.349,0.264-0.521,0.396
		C405.436,660.03,405.436,659.951,405.434,659.871z"/>
	<path stroke="#FFFFFF" d="M409.119,661.459c1.757-1.271,4.429-2.378,5.188-4.592c0.872-2.537-0.971-4.872-2.236-6.934
		c-7.229-11.767-16.433-22.35-27.045-31.183c-11.553-9.616-24.592-16.727-38.715-21.802c-12.379-4.446-27.525-10.594-40.841-7.075
		c-0.012-0.018-0.025-0.036-0.037-0.053c3.938-3.771,6.851-8.558,10.168-12.936c3.506-4.625,7.142-9.146,10.545-13.848
		c3.461-4.78,6.842-9.624,10.209-14.473c1.461-2.104,2.805-4.389,4.416-6.381c2.682-3.316,5.041-1.672,7.844,0.458
		c9.113,6.923,18.25,13.925,26.742,21.606c10.115,9.151,18.529,20.556,26.248,31.742c9.825,14.24,18.131,29.384,25.109,45.209
		c0.84,1.903,3.27,1.553,4.08-0.13c2.494-5.182,5.588-9.641,9.479-13.762c3.422,11.019,5.17,22.363,6.636,33.813
		c1.477,11.548,2.913,23.103,4.366,34.653c-16.946-11.533-36.895-17.837-57.412-18.257
		C397.973,671.322,403.064,665.84,409.119,661.459z"/>
	<path stroke="#FFFFFF" d="M391.223,680.826c0.492-0.003,0.981,0.016,1.471,0.021c-1.441,2.623-2.969,5.771-3.437,8.798
		C388.634,687.227,390.462,682.959,391.223,680.826z"/>
	<path stroke="#FFFFFF" d="M443.947,702.351c0.556-0.263,1.078-0.749,1.439-1.074c1.027-0.923,2.068-1.879,2.758-3.079
		c0.504,0.342,1.008,0.685,1.51,1.034c-0.846,0.473-1.688,0.964-2.489,1.49c-0.976,0.64-2.008,1.203-2.813,2.022
		C444.22,702.613,444.083,702.482,443.947,702.351z"/>
</g>
</svg>
